SplineFontDB: 3.2
FontName: UbeseBoushh-BETA
FullName: Ubese Boushh BETA Regular
FamilyName: UbeseBoushh BETA
Weight: Book
Copyright: Copyright endersmith 2020
Version: 1.0
ItalicAngle: 0
UnderlinePosition: 307
UnderlineWidth: 204
Ascent: 4096
Descent: 0
InvalidEm: 0
sfntRevision: 0x00010000
LayerCount: 2
Layer: 0 1 "Back" 1
Layer: 1 1 "Fore" 0
XUID: [1021 178 1911899458 1845]
StyleMap: 0x0040
FSType: 4
OS2Version: 2
OS2_WeightWidthSlopeOnly: 0
OS2_UseTypoMetrics: 0
CreationTime: 1587348011
ModificationTime: 1592258858
PfmFamily: 81
TTFWeight: 400
TTFWidth: 5
LineGap: 0
VLineGap: 0
Panose: 0 0 4 0 0 0 0 0 0 0
OS2TypoAscent: 4096
OS2TypoAOffset: 0
OS2TypoDescent: 0
OS2TypoDOffset: 0
OS2TypoLinegap: 0
OS2WinAscent: 4505
OS2WinAOffset: 0
OS2WinDescent: 0
OS2WinDOffset: 0
HheadAscent: 4505
HheadAOffset: 0
HheadDescent: 0
HheadDOffset: 0
OS2SubXSize: 2048
OS2SubYSize: 2048
OS2SubXOff: 0
OS2SubYOff: 0
OS2SupXSize: 2048
OS2SupYSize: 2048
OS2SupXOff: 0
OS2SupYOff: 2048
OS2StrikeYSize: 204
OS2StrikeYPos: 819
OS2CapHeight: 4096
OS2XHeight: 4096
OS2Vendor: 'FSTR'
OS2CodePages: 00000001.00000000
OS2UnicodeRanges: 00000001.00000000.00000000.00000000
Lookup: 4 0 1 "'liga' Standard Ligatures in Latin lookup 0" { "'liga' Standard Ligatures in Latin lookup 0-1"  } ['liga' ('DFLT' <'dflt' > 'latn' <'dflt' > ) ]
MarkAttachClasses: 1
DEI: 91125
ShortTable: maxp 16
  1
  0
  63
  37
  5
  0
  0
  2
  0
  0
  0
  0
  0
  0
  0
  0
EndShort
LangName: 1033 "" "" "Regular" "Ubese Boushh BETA 2" "" "Version 1.0" "" "" "" "endersmith" "+IBwA-Ubese Boushh BETA+IB0A was built with FontStruct+AAoA" "" "" "Creative Commons CC0 Public Domain Dedication" "http://creativecommons.org/publicdomain/zero/1.0/"
Encoding: UnicodeBmp
UnicodeInterp: none
NameList: AGL For New Fonts
DisplaySize: -72
AntiAlias: 1
FitToEm: 0
WinInfo: 65300 25 10
BeginPrivate: 0
EndPrivate
BeginChars: 65541 68

StartChar: .notdef
Encoding: 65536 -1 0
Width: 3560
Flags: W
LayerCount: 2
Fore
SplineSet
3081 50 m 1,0,-1
 1575 2028 l 1,1,-1
 69 50 l 1,2,-1
 3081 50 l 1,0,-1
50 69 m 1,3,-1
 1556 2048 l 1,4,-1
 50 4026 l 1,5,-1
 50 69 l 1,6,-1
 50 69 l 1,3,-1
3100 69 m 1,7,-1
 3100 4026 l 1,8,-1
 1594 2048 l 1,9,-1
 3100 69 l 1,10,-1
 3100 69 l 1,7,-1
1575 2067 m 1,11,-1
 3081 4046 l 1,12,-1
 69 4046 l 1,13,-1
 1575 2067 l 1,14,-1
 1575 2067 l 1,11,-1
0 0 m 1,15,-1
 0 4096 l 1,16,-1
 3150 4096 l 1,17,-1
 3150 0 l 1,18,-1
 0 0 l 1,15,-1
EndSplineSet
Validated: 5
EndChar

StartChar: quotesingle
Encoding: 39 39 4
Width: 2457
Flags: W
LayerCount: 2
Fore
SplineSet
0 0 m 1,0,-1
 0 1228 l 1,1,-1
 1228 2457 l 1,2,-1
 2048 2457 l 1,3,-1
 2048 2048 l 1,4,-1
 819 819 l 1,5,6
 819 649 819 649 939 529 c 128,-1,7
 1059 409 1059 409 1228 409 c 1,8,-1
 2048 1228 l 1,9,-1
 2048 0 l 1,10,-1
 0 0 l 1,0,-1
EndSplineSet
Validated: 1
EndChar

StartChar: zero
Encoding: 48 48 5
Width: 2048
Flags: W
LayerCount: 2
Fore
SplineSet
0 0 m 1,0,-1
 0 3890 l 2,1,2
 0 3975 0 3975 59 4035 c 0,3,4
 120 4096 120 4096 204 4096 c 2,5,-1
 1433 4096 l 2,6,7
 1518 4096 1518 4096 1578 4036 c 0,8,9
 1638 3975 1638 3975 1638 3891 c 2,10,-1
 1638 0 l 1,11,-1
 0 0 l 1,0,-1
1024 819 m 2,12,13
 1108 819 1108 819 1168 879 c 128,-1,14
 1228 939 1228 939 1228 1024 c 2,15,-1
 1228 3276 l 1,16,-1
 614 3276 l 2,17,18
 529 3276 529 3276 469 3216 c 128,-1,19
 409 3156 409 3156 409 3072 c 2,20,-1
 409 819 l 1,21,-1
 1024 819 l 2,12,13
EndSplineSet
Validated: 1
EndChar

StartChar: one
Encoding: 49 49 6
Width: 1228
Flags: W
LayerCount: 2
Fore
SplineSet
0 0 m 1,0,-1
 0 4096 l 1,1,-1
 819 4096 l 1,2,-1
 819 0 l 1,3,-1
 0 0 l 1,0,-1
EndSplineSet
Validated: 1
EndChar

StartChar: three
Encoding: 51 51 7
Width: 2457
Flags: W
LayerCount: 2
Fore
SplineSet
0 0 m 1,0,-1
 1638 1638 l 1,1,2
 1638 1807 1638 1807 1518 1927 c 0,3,4
 1398 2048 1398 2048 1228 2048 c 1,5,-1
 0 819 l 1,6,-1
 0 1638 l 1,7,-1
 1638 3276 l 1,8,9
 1638 3446 1638 3446 1518 3566 c 128,-1,10
 1398 3686 1398 3686 1228 3686 c 1,11,-1
 0 2457 l 1,12,-1
 0 3686 l 2,13,14
 0 3856 0 3856 120 3975 c 0,15,16
 240 4096 240 4096 409 4096 c 2,17,-1
 1843 4096 l 2,18,19
 1927 4096 1927 4096 1988 4036 c 0,20,21
 2048 3975 2048 3975 2048 3891 c 2,22,-1
 2048 0 l 1,23,-1
 0 0 l 1,0,-1
EndSplineSet
Validated: 1
EndChar

StartChar: four
Encoding: 52 52 8
Width: 2457
Flags: W
LayerCount: 2
Fore
SplineSet
1228 0 m 1,0,-1
 1228 1433 l 2,1,2
 1228 1518 1228 1518 1168 1578 c 128,-1,3
 1108 1638 1108 1638 1024 1638 c 2,4,-1
 204 1638 l 2,5,6
 120 1638 120 1638 59 1698 c 0,7,8
 0 1758 0 1758 0 1843 c 2,9,-1
 0 3890 l 2,10,11
 0 3975 0 3975 59 4035 c 0,12,13
 120 4096 120 4096 204 4096 c 2,14,-1
 409 4096 l 1,15,-1
 409 2662 l 2,16,17
 409 2577 409 2577 469 2517 c 128,-1,18
 529 2457 529 2457 614 2457 c 2,19,-1
 1024 2457 l 2,20,21
 1108 2457 1108 2457 1168 2517 c 128,-1,22
 1228 2577 1228 2577 1228 2662 c 2,23,-1
 1228 4096 l 1,24,-1
 2048 4096 l 1,25,-1
 2048 0 l 1,26,-1
 1228 0 l 1,0,-1
EndSplineSet
Validated: 1
EndChar

StartChar: eight
Encoding: 56 56 9
Width: 2457
Flags: W
LayerCount: 2
Fore
SplineSet
0 0 m 1,0,-1
 0 3890 l 2,1,2
 0 3975 0 3975 59 4035 c 0,3,4
 120 4096 120 4096 204 4096 c 2,5,-1
 1843 4096 l 2,6,7
 1927 4096 1927 4096 1988 4036 c 0,8,9
 2048 3975 2048 3975 2048 3891 c 2,10,-1
 2048 0 l 1,11,-1
 0 0 l 1,0,-1
1433 2457 m 2,12,13
 1518 2457 1518 2457 1578 2517 c 128,-1,14
 1638 2577 1638 2577 1638 2662 c 2,15,-1
 1638 3276 l 1,16,-1
 614 3276 l 2,17,18
 529 3276 529 3276 469 3216 c 128,-1,19
 409 3156 409 3156 409 3072 c 2,20,-1
 409 2457 l 1,21,-1
 1433 2457 l 2,12,13
1433 819 m 2,22,23
 1518 819 1518 819 1578 879 c 128,-1,24
 1638 939 1638 939 1638 1024 c 2,25,-1
 1638 1638 l 1,26,-1
 614 1638 l 2,27,28
 529 1638 529 1638 469 1578 c 128,-1,29
 409 1518 409 1518 409 1433 c 2,30,-1
 409 819 l 1,31,-1
 1433 819 l 2,22,23
EndSplineSet
Validated: 1
EndChar

StartChar: A
Encoding: 65 65 10
Width: 2457
Flags: W
LayerCount: 2
Fore
SplineSet
409 0 m 1,0,-1
 409 2457 l 1,1,-1
 1433 2457 l 2,2,3
 1518 2457 1518 2457 1578 2517 c 128,-1,4
 1638 2577 1638 2577 1638 2662 c 128,-1,5
 1638 2747 1638 2747 1578 2807 c 128,-1,6
 1518 2867 1518 2867 1433 2867 c 2,7,-1
 0 2867 l 1,8,-1
 0 4096 l 1,9,-1
 1638 4096 l 2,10,11
 1808 4096 1808 4096 1927 3975 c 0,12,13
 2048 3855 2048 3855 2048 3686 c 2,14,-1
 2048 2457 l 2,15,16
 2048 2287 2048 2287 1927 2168 c 0,17,18
 1807 2048 1807 2048 1638 2048 c 2,19,-1
 1228 2048 l 1,20,-1
 1228 0 l 1,21,-1
 409 0 l 1,0,-1
EndSplineSet
Validated: 1
EndChar

StartChar: B
Encoding: 66 66 11
Width: 2867
Flags: W
LayerCount: 2
Fore
SplineSet
819 0 m 1,0,-1
 409 204 l 1,1,-1
 204 409 l 1,2,-1
 0 819 l 1,3,-1
 0 4096 l 1,4,-1
 1228 4096 l 1,5,-1
 1228 3276 l 1,6,-1
 1433 3276 l 2,7,8
 1518 3276 1518 3276 1578 3336 c 128,-1,9
 1638 3396 1638 3396 1638 3481 c 2,10,-1
 1638 3686 l 1,11,-1
 2457 3686 l 1,12,-1
 2457 3072 l 2,13,14
 2457 2987 2457 2987 2397 2927 c 128,-1,15
 2337 2867 2337 2867 2252 2867 c 2,16,-1
 1228 2867 l 1,17,-1
 1228 1024 l 2,18,19
 1228 939 1228 939 1288 879 c 128,-1,20
 1348 819 1348 819 1433 819 c 128,-1,21
 1518 819 1518 819 1578 879 c 128,-1,22
 1638 939 1638 939 1638 1024 c 2,23,-1
 1638 2457 l 1,24,-1
 2457 2457 l 1,25,-1
 2457 819 l 1,26,-1
 2252 409 l 1,27,-1
 2048 204 l 1,28,-1
 1638 0 l 1,29,-1
 819 0 l 1,0,-1
EndSplineSet
Validated: 1
EndChar

StartChar: C
Encoding: 67 67 12
Width: 2457
Flags: W
LayerCount: 2
Fore
SplineSet
0 0 m 1,0,-1
 0 3686 l 2,1,2
 0 3856 0 3856 120 3975 c 0,3,4
 240 4096 240 4096 409 4096 c 2,5,-1
 2048 4096 l 1,6,-1
 2048 2867 l 1,7,8
 2048 3036 2048 3036 1927 3156 c 0,9,10
 1807 3276 1807 3276 1638 3276 c 2,11,-1
 819 3276 l 2,12,13
 649 3276 649 3276 529 3156 c 128,-1,14
 409 3036 409 3036 409 2867 c 2,15,-1
 409 2048 l 2,16,17
 409 1878 409 1878 529 1758 c 128,-1,18
 649 1638 649 1638 819 1638 c 0,19,20
 988 1638 988 1638 1108 1758 c 128,-1,21
 1228 1878 1228 1878 1228 2048 c 1,22,-1
 1228 0 l 1,23,-1
 0 0 l 1,0,-1
EndSplineSet
Validated: 1
EndChar

StartChar: D
Encoding: 68 68 13
Width: 2457
Flags: W
LayerCount: 2
Fore
SplineSet
0 0 m 1,0,-1
 0 3891 l 2,1,2
 0 3975 0 3975 59 4036 c 0,3,4
 120 4096 120 4096 204 4096 c 2,5,-1
 2048 4096 l 1,6,-1
 2048 2457 l 1,7,-1
 1228 3276 l 1,8,9
 1059 3276 1059 3276 939 3156 c 128,-1,10
 819 3036 819 3036 819 2867 c 1,11,-1
 2048 1638 l 1,12,-1
 2048 204 l 2,13,14
 2048 120 2048 120 1988 59 c 0,15,16
 1927 0 1927 0 1843 0 c 2,17,-1
 1228 0 l 1,18,-1
 1228 1433 l 2,19,20
 1228 1518 1228 1518 1168 1578 c 128,-1,21
 1108 1638 1108 1638 1024 1638 c 0,22,23
 939 1638 939 1638 879 1578 c 128,-1,24
 819 1518 819 1518 819 1433 c 2,25,-1
 819 0 l 1,26,-1
 0 0 l 1,0,-1
EndSplineSet
Validated: 1
EndChar

StartChar: E
Encoding: 69 69 14
Width: 2457
Flags: W
LayerCount: 2
Fore
SplineSet
-204 0 m 1,0,-1
 1228 2867 l 1,1,2
 1228 3036 1228 3036 1108 3156 c 128,-1,3
 988 3276 988 3276 819 3276 c 1,4,-1
 204 2048 l 1,5,-1
 204 4096 l 1,6,-1
 1843 4096 l 2,7,8
 1927 4096 1927 4096 1988 4036 c 0,9,10
 2048 3975 2048 3975 2048 3891 c 2,11,-1
 2048 2048 l 1,12,-1
 1433 2048 l 2,13,14
 1348 2048 1348 2048 1288 1988 c 0,15,16
 1228 1927 1228 1927 1228 1843 c 0,17,18
 1228 1758 1228 1758 1288 1698 c 128,-1,19
 1348 1638 1348 1638 1433 1638 c 2,20,-1
 2048 1638 l 1,21,-1
 2048 0 l 1,22,-1
 -204 0 l 1,0,-1
EndSplineSet
Validated: 1
EndChar

StartChar: F
Encoding: 70 70 15
Width: 2048
Flags: W
LayerCount: 2
Fore
SplineSet
0 0 m 1,0,-1
 0 3890 l 2,1,2
 0 3975 0 3975 59 4035 c 0,3,4
 120 4096 120 4096 204 4096 c 2,5,-1
 1638 4096 l 1,6,-1
 1638 2867 l 1,7,-1
 819 2867 l 2,8,9
 649 2867 649 2867 529 2747 c 128,-1,10
 409 2627 409 2627 409 2457 c 2,11,-1
 409 1228 l 2,12,13
 409 1059 409 1059 529 939 c 128,-1,14
 649 819 649 819 819 819 c 2,15,-1
 1638 819 l 1,16,-1
 1638 0 l 1,17,-1
 0 0 l 1,0,-1
EndSplineSet
Validated: 1
EndChar

StartChar: G
Encoding: 71 71 16
Width: 2867
Flags: W
LayerCount: 2
Fore
SplineSet
0 0 m 1,0,-1
 0 4096 l 1,1,-1
 819 4096 l 1,2,-1
 819 409 l 1,3,-1
 1638 409 l 1,4,-1
 1638 4096 l 1,5,-1
 2252 4096 l 2,6,7
 2337 4096 2337 4096 2397 4036 c 0,8,9
 2457 3975 2457 3975 2457 3891 c 2,10,-1
 2457 409 l 2,11,12
 2457 239 2457 239 2337 120 c 0,13,14
 2217 0 2217 0 2048 0 c 2,15,-1
 0 0 l 1,0,-1
EndSplineSet
Validated: 1
EndChar

StartChar: H
Encoding: 72 72 17
Width: 2867
Flags: W
LayerCount: 2
Fore
SplineSet
0 0 m 1,0,-1
 0 4096 l 1,1,-1
 819 4096 l 1,2,-1
 819 409 l 1,3,-1
 1638 409 l 1,4,-1
 1638 4096 l 1,5,-1
 2252 4096 l 2,6,7
 2337 4096 2337 4096 2397 4036 c 0,8,9
 2457 3975 2457 3975 2457 3891 c 2,10,-1
 2457 409 l 2,11,12
 2457 239 2457 239 2337 120 c 0,13,14
 2217 0 2217 0 2048 0 c 2,15,-1
 0 0 l 1,0,-1
EndSplineSet
Validated: 1
EndChar

StartChar: I
Encoding: 73 73 18
Width: 2048
Flags: W
LayerCount: 2
Fore
SplineSet
0 1228 m 1,0,-1
 0 2048 l 1,1,-1
 1024 2048 l 2,2,3
 1108 2048 1108 2048 1168 2107 c 0,4,5
 1228 2168 1228 2168 1228 2252 c 0,6,7
 1228 2337 1228 2337 1168 2397 c 128,-1,8
 1108 2457 1108 2457 1024 2457 c 2,9,-1
 0 2457 l 1,10,-1
 0 2867 l 1,11,-1
 204 3276 l 1,12,-1
 819 3891 l 1,13,-1
 1228 4096 l 1,14,-1
 1638 4096 l 1,15,-1
 1638 1228 l 1,16,-1
 0 1228 l 1,0,-1
0 0 m 1,17,-1
 0 819 l 1,18,-1
 1638 819 l 1,19,-1
 1638 0 l 1,20,-1
 0 0 l 1,17,-1
EndSplineSet
Validated: 1
EndChar

StartChar: J
Encoding: 74 74 19
Width: 2201
Flags: W
LayerCount: 2
Fore
SplineSet
819 0 m 1,0,-1
 819 1638 l 2,1,2
 819 1807 819 1807 699 1927 c 0,3,4
 579 2048 579 2048 409 2048 c 2,5,-1
 0 2048 l 1,6,-1
 0 3891 l 2,7,8
 0 3975 0 3975 59 4036 c 0,9,10
 120 4096 120 4096 204 4096 c 2,11,-1
 1843 4096 l 1,12,-1
 1843 2048 l 1,13,-1
 1228 3276 l 1,14,15
 1059 3276 1059 3276 939 3156 c 128,-1,16
 819 3036 819 3036 819 2867 c 1,17,-1
 1638 1228 l 1,18,-1
 1638 0 l 1,19,-1
 819 0 l 1,0,-1
EndSplineSet
Validated: 1
EndChar

StartChar: K
Encoding: 75 75 20
Width: 2867
Flags: W
LayerCount: 2
Fore
SplineSet
0 0 m 1,0,-1
 0 4096 l 1,1,-1
 819 4096 l 1,2,-1
 819 409 l 1,3,-1
 1638 409 l 1,4,-1
 1638 4096 l 1,5,-1
 2252 4096 l 2,6,7
 2337 4096 2337 4096 2397 4036 c 0,8,9
 2457 3975 2457 3975 2457 3891 c 2,10,-1
 2457 409 l 2,11,12
 2457 239 2457 239 2337 120 c 0,13,14
 2217 0 2217 0 2048 0 c 2,15,-1
 0 0 l 1,0,-1
EndSplineSet
Validated: 1
EndChar

StartChar: L
Encoding: 76 76 21
Width: 2457
Flags: W
LayerCount: 2
Fore
SplineSet
0 0 m 1,0,-1
 0 3891 l 2,1,2
 0 3975 0 3975 59 4036 c 0,3,4
 120 4096 120 4096 204 4096 c 2,5,-1
 2048 4096 l 1,6,-1
 2048 2457 l 1,7,-1
 1228 3276 l 1,8,9
 1059 3276 1059 3276 939 3156 c 128,-1,10
 819 3036 819 3036 819 2867 c 1,11,-1
 2048 1638 l 1,12,-1
 2048 204 l 2,13,14
 2048 120 2048 120 1988 59 c 0,15,16
 1927 0 1927 0 1843 0 c 2,17,-1
 1228 0 l 1,18,-1
 1228 1433 l 2,19,20
 1228 1518 1228 1518 1168 1578 c 128,-1,21
 1108 1638 1108 1638 1024 1638 c 0,22,23
 939 1638 939 1638 879 1578 c 128,-1,24
 819 1518 819 1518 819 1433 c 2,25,-1
 819 0 l 1,26,-1
 0 0 l 1,0,-1
EndSplineSet
Validated: 1
EndChar

StartChar: M
Encoding: 77 77 22
Width: 2457
Flags: W
LayerCount: 2
Fore
SplineSet
0 0 m 1,0,-1
 0 1228 l 1,1,-1
 1228 2457 l 1,2,-1
 2048 2457 l 1,3,-1
 2048 2048 l 1,4,-1
 819 819 l 1,5,6
 819 649 819 649 939 529 c 128,-1,7
 1059 409 1059 409 1228 409 c 1,8,-1
 2048 1228 l 1,9,-1
 2048 0 l 1,10,-1
 0 0 l 1,0,-1
EndSplineSet
Validated: 1
EndChar

StartChar: N
Encoding: 78 78 23
Width: 2457
Flags: W
LayerCount: 2
Fore
SplineSet
0 0 m 1,0,-1
 0 1228 l 1,1,-1
 1228 2457 l 1,2,-1
 2048 2457 l 1,3,-1
 2048 2048 l 1,4,-1
 819 819 l 1,5,6
 819 649 819 649 939 529 c 128,-1,7
 1059 409 1059 409 1228 409 c 1,8,-1
 2048 1228 l 1,9,-1
 2048 0 l 1,10,-1
 0 0 l 1,0,-1
EndSplineSet
Validated: 1
EndChar

StartChar: O
Encoding: 79 79 24
Width: 2457
Flags: W
LayerCount: 2
Fore
SplineSet
0 0 m 1,0,-1
 0 1228 l 1,1,-1
 1228 2457 l 1,2,-1
 1228 4096 l 1,3,-1
 2048 4096 l 1,4,-1
 2048 2048 l 1,5,-1
 819 819 l 1,6,7
 819 649 819 649 939 529 c 128,-1,8
 1059 409 1059 409 1228 409 c 1,9,-1
 2048 1228 l 1,10,-1
 2048 0 l 1,11,-1
 0 0 l 1,0,-1
EndSplineSet
Validated: 1
EndChar

StartChar: P
Encoding: 80 80 25
Width: 2867
Flags: W
LayerCount: 2
Fore
SplineSet
819 0 m 1,0,-1
 409 204 l 1,1,-1
 204 409 l 1,2,-1
 0 819 l 1,3,-1
 0 4096 l 1,4,-1
 1228 4096 l 1,5,-1
 1228 3276 l 1,6,-1
 1433 3276 l 2,7,8
 1518 3276 1518 3276 1578 3336 c 128,-1,9
 1638 3396 1638 3396 1638 3481 c 2,10,-1
 1638 3686 l 1,11,-1
 2457 3686 l 1,12,-1
 2457 3072 l 2,13,14
 2457 2987 2457 2987 2397 2927 c 128,-1,15
 2337 2867 2337 2867 2252 2867 c 2,16,-1
 1228 2867 l 1,17,-1
 1228 1024 l 2,18,19
 1228 939 1228 939 1288 879 c 128,-1,20
 1348 819 1348 819 1433 819 c 128,-1,21
 1518 819 1518 819 1578 879 c 128,-1,22
 1638 939 1638 939 1638 1024 c 2,23,-1
 1638 2457 l 1,24,-1
 2457 2457 l 1,25,-1
 2457 819 l 1,26,-1
 2252 409 l 1,27,-1
 2048 204 l 1,28,-1
 1638 0 l 1,29,-1
 819 0 l 1,0,-1
EndSplineSet
Validated: 1
EndChar

StartChar: Q
Encoding: 81 81 26
Width: 2867
Flags: W
LayerCount: 2
Fore
SplineSet
0 0 m 1,0,-1
 0 4096 l 1,1,-1
 819 4096 l 1,2,-1
 819 409 l 1,3,-1
 1638 409 l 1,4,-1
 1638 4096 l 1,5,-1
 2252 4096 l 2,6,7
 2337 4096 2337 4096 2397 4036 c 0,8,9
 2457 3975 2457 3975 2457 3891 c 2,10,-1
 2457 409 l 2,11,12
 2457 239 2457 239 2337 120 c 0,13,14
 2217 0 2217 0 2048 0 c 2,15,-1
 0 0 l 1,0,-1
EndSplineSet
Validated: 1
EndChar

StartChar: R
Encoding: 82 82 27
Width: 2457
Flags: W
LayerCount: 2
Fore
SplineSet
0 0 m 1,0,-1
 0 3891 l 2,1,2
 0 3975 0 3975 59 4036 c 0,3,4
 120 4096 120 4096 204 4096 c 2,5,-1
 2048 4096 l 1,6,-1
 2048 2457 l 1,7,-1
 1228 3276 l 1,8,9
 1059 3276 1059 3276 939 3156 c 128,-1,10
 819 3036 819 3036 819 2867 c 1,11,-1
 2048 1638 l 1,12,-1
 2048 204 l 2,13,14
 2048 120 2048 120 1988 59 c 0,15,16
 1927 0 1927 0 1843 0 c 2,17,-1
 1228 0 l 1,18,-1
 1228 1433 l 2,19,20
 1228 1518 1228 1518 1168 1578 c 128,-1,21
 1108 1638 1108 1638 1024 1638 c 0,22,23
 939 1638 939 1638 879 1578 c 128,-1,24
 819 1518 819 1518 819 1433 c 2,25,-1
 819 0 l 1,26,-1
 0 0 l 1,0,-1
EndSplineSet
Validated: 1
EndChar

StartChar: S
Encoding: 83 83 28
Width: 2048
Flags: W
LayerCount: 2
Fore
SplineSet
0 0 m 1,0,-1
 0 3890 l 2,1,2
 0 3975 0 3975 59 4035 c 0,3,4
 120 4096 120 4096 204 4096 c 2,5,-1
 1638 4096 l 1,6,-1
 1638 2867 l 1,7,-1
 819 2867 l 2,8,9
 649 2867 649 2867 529 2747 c 128,-1,10
 409 2627 409 2627 409 2457 c 2,11,-1
 409 1228 l 2,12,13
 409 1059 409 1059 529 939 c 128,-1,14
 649 819 649 819 819 819 c 2,15,-1
 1638 819 l 1,16,-1
 1638 0 l 1,17,-1
 0 0 l 1,0,-1
EndSplineSet
Validated: 1
EndChar

StartChar: T
Encoding: 84 84 29
Width: 2457
Flags: W
LayerCount: 2
Fore
SplineSet
0 3686 m 1,0,-1
 0 4096 l 1,1,-1
 2048 4096 l 1,2,-1
 2048 3686 l 1,3,-1
 0 3686 l 1,0,-1
0 0 m 1,4,-1
 0 2457 l 1,5,-1
 1024 2457 l 2,6,7
 1108 2457 1108 2457 1168 2517 c 128,-1,8
 1228 2577 1228 2577 1228 2662 c 128,-1,9
 1228 2747 1228 2747 1168 2807 c 128,-1,10
 1108 2867 1108 2867 1024 2867 c 2,11,-1
 0 2867 l 1,12,-1
 0 3276 l 1,13,-1
 2048 3276 l 1,14,-1
 2048 2252 l 2,15,16
 2048 2168 2048 2168 1988 2107 c 0,17,18
 1927 2048 1927 2048 1843 2048 c 2,19,-1
 1228 2048 l 2,20,21
 1059 2048 1059 2048 939 1927 c 0,22,23
 819 1807 819 1807 819 1638 c 2,24,-1
 819 1228 l 2,25,26
 819 1059 819 1059 939 939 c 128,-1,27
 1059 819 1059 819 1228 819 c 2,28,-1
 1638 819 l 1,29,-1
 2048 1638 l 1,30,-1
 2048 0 l 1,31,-1
 0 0 l 1,4,-1
EndSplineSet
Validated: 1
EndChar

StartChar: U
Encoding: 85 85 30
Width: 2457
Flags: W
LayerCount: 2
Fore
SplineSet
0 3276 m 1,0,-1
 0 3890 l 2,1,2
 0 3975 0 3975 59 4035 c 0,3,4
 120 4096 120 4096 204 4096 c 2,5,-1
 2048 4096 l 1,6,-1
 2048 3276 l 1,7,-1
 0 3276 l 1,0,-1
819 0 m 1,8,-1
 819 1024 l 2,9,10
 819 1108 819 1108 759 1168 c 128,-1,11
 699 1228 699 1228 614 1228 c 2,12,-1
 0 1228 l 1,13,-1
 0 2457 l 1,14,-1
 2048 2457 l 1,15,-1
 2048 1228 l 1,16,-1
 1433 1228 l 2,17,18
 1348 1228 1348 1228 1288 1168 c 128,-1,19
 1228 1108 1228 1108 1228 1024 c 2,20,-1
 1228 0 l 1,21,-1
 819 0 l 1,8,-1
EndSplineSet
Validated: 1
EndChar

StartChar: V
Encoding: 86 86 31
Width: 2457
Flags: W
LayerCount: 2
Fore
SplineSet
819 1638 m 1,0,-1
 0 2457 l 1,1,-1
 0 3686 l 2,2,3
 0 3856 0 3856 120 3975 c 0,4,5
 240 4096 240 4096 409 4096 c 2,6,-1
 1843 4096 l 2,7,8
 1927 4096 1927 4096 1988 4036 c 0,9,10
 2048 3975 2048 3975 2048 3891 c 2,11,-1
 2048 2867 l 1,12,13
 2048 3036 2048 3036 1927 3156 c 0,14,15
 1807 3276 1807 3276 1638 3276 c 2,16,-1
 1228 3276 l 2,17,18
 1059 3276 1059 3276 939 3156 c 128,-1,19
 819 3036 819 3036 819 2867 c 2,20,-1
 819 1638 l 1,0,-1
0 0 m 1,21,-1
 0 1638 l 1,22,-1
 819 819 l 1,23,24
 988 819 988 819 1108 939 c 128,-1,25
 1228 1059 1228 1059 1228 1228 c 2,26,-1
 1228 2457 l 1,27,-1
 2048 1638 l 1,28,-1
 2048 204 l 2,29,30
 2048 120 2048 120 1988 59 c 0,31,32
 1927 0 1927 0 1843 0 c 2,33,-1
 0 0 l 1,21,-1
EndSplineSet
Validated: 1
EndChar

StartChar: W
Encoding: 87 87 32
Width: 2457
Flags: W
LayerCount: 2
Fore
SplineSet
0 3276 m 1,0,-1
 0 3890 l 2,1,2
 0 3975 0 3975 59 4035 c 0,3,4
 120 4096 120 4096 204 4096 c 2,5,-1
 2048 4096 l 1,6,-1
 2048 3276 l 1,7,-1
 0 3276 l 1,0,-1
819 0 m 1,8,-1
 819 1024 l 2,9,10
 819 1108 819 1108 759 1168 c 128,-1,11
 699 1228 699 1228 614 1228 c 2,12,-1
 0 1228 l 1,13,-1
 0 2457 l 1,14,-1
 2048 2457 l 1,15,-1
 2048 1228 l 1,16,-1
 1433 1228 l 2,17,18
 1348 1228 1348 1228 1288 1168 c 128,-1,19
 1228 1108 1228 1108 1228 1024 c 2,20,-1
 1228 0 l 1,21,-1
 819 0 l 1,8,-1
EndSplineSet
Validated: 1
EndChar

StartChar: X
Encoding: 88 88 33
Width: 2457
Flags: W
LayerCount: 2
Fore
SplineSet
0 0 m 1,0,-1
 0 3686 l 2,1,2
 0 3856 0 3856 120 3975 c 0,3,4
 240 4096 240 4096 409 4096 c 2,5,-1
 2048 4096 l 1,6,-1
 2048 2867 l 1,7,8
 2048 3036 2048 3036 1927 3156 c 0,9,10
 1807 3276 1807 3276 1638 3276 c 2,11,-1
 819 3276 l 2,12,13
 649 3276 649 3276 529 3156 c 128,-1,14
 409 3036 409 3036 409 2867 c 2,15,-1
 409 2048 l 2,16,17
 409 1878 409 1878 529 1758 c 128,-1,18
 649 1638 649 1638 819 1638 c 0,19,20
 988 1638 988 1638 1108 1758 c 128,-1,21
 1228 1878 1228 1878 1228 2048 c 1,22,-1
 1228 0 l 1,23,-1
 0 0 l 1,0,-1
EndSplineSet
Validated: 1
EndChar

StartChar: Y
Encoding: 89 89 34
Width: 2201
Flags: W
LayerCount: 2
Fore
SplineSet
819 0 m 1,0,-1
 819 1638 l 2,1,2
 819 1807 819 1807 699 1927 c 0,3,4
 579 2048 579 2048 409 2048 c 2,5,-1
 0 2048 l 1,6,-1
 0 3891 l 2,7,8
 0 3975 0 3975 59 4036 c 0,9,10
 120 4096 120 4096 204 4096 c 2,11,-1
 1843 4096 l 1,12,-1
 1843 2048 l 1,13,-1
 1228 3276 l 1,14,15
 1059 3276 1059 3276 939 3156 c 128,-1,16
 819 3036 819 3036 819 2867 c 1,17,-1
 1638 1228 l 1,18,-1
 1638 0 l 1,19,-1
 819 0 l 1,0,-1
EndSplineSet
Validated: 1
EndChar

StartChar: Z
Encoding: 90 90 35
Width: 2457
Flags: W
LayerCount: 2
Fore
SplineSet
819 1638 m 1,0,-1
 0 2457 l 1,1,-1
 0 3686 l 2,2,3
 0 3856 0 3856 120 3975 c 0,4,5
 240 4096 240 4096 409 4096 c 2,6,-1
 1843 4096 l 2,7,8
 1927 4096 1927 4096 1988 4036 c 0,9,10
 2048 3975 2048 3975 2048 3891 c 2,11,-1
 2048 2867 l 1,12,13
 2048 3036 2048 3036 1927 3156 c 0,14,15
 1807 3276 1807 3276 1638 3276 c 2,16,-1
 1228 3276 l 2,17,18
 1059 3276 1059 3276 939 3156 c 128,-1,19
 819 3036 819 3036 819 2867 c 2,20,-1
 819 1638 l 1,0,-1
0 0 m 1,21,-1
 0 1638 l 1,22,-1
 819 819 l 1,23,24
 988 819 988 819 1108 939 c 128,-1,25
 1228 1059 1228 1059 1228 1228 c 2,26,-1
 1228 2457 l 1,27,-1
 2048 1638 l 1,28,-1
 2048 204 l 2,29,30
 2048 120 2048 120 1988 59 c 0,31,32
 1927 0 1927 0 1843 0 c 2,33,-1
 0 0 l 1,21,-1
EndSplineSet
Validated: 1
EndChar

StartChar: a
Encoding: 97 97 36
Width: 2457
Flags: W
LayerCount: 2
Fore
SplineSet
409 0 m 1,0,-1
 409 2457 l 1,1,-1
 1433 2457 l 2,2,3
 1518 2457 1518 2457 1578 2517 c 128,-1,4
 1638 2577 1638 2577 1638 2662 c 128,-1,5
 1638 2747 1638 2747 1578 2807 c 128,-1,6
 1518 2867 1518 2867 1433 2867 c 2,7,-1
 0 2867 l 1,8,-1
 0 4096 l 1,9,-1
 1638 4096 l 2,10,11
 1808 4096 1808 4096 1927 3975 c 0,12,13
 2048 3855 2048 3855 2048 3686 c 2,14,-1
 2048 2457 l 2,15,16
 2048 2287 2048 2287 1927 2168 c 0,17,18
 1807 2048 1807 2048 1638 2048 c 2,19,-1
 1228 2048 l 1,20,-1
 1228 0 l 1,21,-1
 409 0 l 1,0,-1
EndSplineSet
Validated: 1
EndChar

StartChar: b
Encoding: 98 98 37
Width: 2867
Flags: W
LayerCount: 2
Fore
SplineSet
819 0 m 1,0,-1
 409 204 l 1,1,-1
 204 409 l 1,2,-1
 0 819 l 1,3,-1
 0 4096 l 1,4,-1
 1228 4096 l 1,5,-1
 1228 3276 l 1,6,-1
 1433 3276 l 2,7,8
 1518 3276 1518 3276 1578 3336 c 128,-1,9
 1638 3396 1638 3396 1638 3481 c 2,10,-1
 1638 3686 l 1,11,-1
 2457 3686 l 1,12,-1
 2457 3072 l 2,13,14
 2457 2987 2457 2987 2397 2927 c 128,-1,15
 2337 2867 2337 2867 2252 2867 c 2,16,-1
 1228 2867 l 1,17,-1
 1228 1024 l 2,18,19
 1228 939 1228 939 1288 879 c 128,-1,20
 1348 819 1348 819 1433 819 c 128,-1,21
 1518 819 1518 819 1578 879 c 128,-1,22
 1638 939 1638 939 1638 1024 c 2,23,-1
 1638 2457 l 1,24,-1
 2457 2457 l 1,25,-1
 2457 819 l 1,26,-1
 2252 409 l 1,27,-1
 2048 204 l 1,28,-1
 1638 0 l 1,29,-1
 819 0 l 1,0,-1
EndSplineSet
Validated: 1
EndChar

StartChar: c
Encoding: 99 99 38
Width: 2457
Flags: W
LayerCount: 2
Fore
SplineSet
0 0 m 1,0,-1
 0 3686 l 2,1,2
 0 3856 0 3856 120 3975 c 0,3,4
 240 4096 240 4096 409 4096 c 2,5,-1
 2048 4096 l 1,6,-1
 2048 2867 l 1,7,8
 2048 3036 2048 3036 1927 3156 c 0,9,10
 1807 3276 1807 3276 1638 3276 c 2,11,-1
 819 3276 l 2,12,13
 649 3276 649 3276 529 3156 c 128,-1,14
 409 3036 409 3036 409 2867 c 2,15,-1
 409 2048 l 2,16,17
 409 1878 409 1878 529 1758 c 128,-1,18
 649 1638 649 1638 819 1638 c 0,19,20
 988 1638 988 1638 1108 1758 c 128,-1,21
 1228 1878 1228 1878 1228 2048 c 1,22,-1
 1228 0 l 1,23,-1
 0 0 l 1,0,-1
EndSplineSet
Validated: 1
EndChar

StartChar: d
Encoding: 100 100 39
Width: 2457
Flags: W
LayerCount: 2
Fore
SplineSet
0 0 m 1,0,-1
 0 3891 l 2,1,2
 0 3975 0 3975 59 4036 c 0,3,4
 120 4096 120 4096 204 4096 c 2,5,-1
 2048 4096 l 1,6,-1
 2048 2457 l 1,7,-1
 1228 3276 l 1,8,9
 1059 3276 1059 3276 939 3156 c 128,-1,10
 819 3036 819 3036 819 2867 c 1,11,-1
 2048 1638 l 1,12,-1
 2048 204 l 2,13,14
 2048 120 2048 120 1988 59 c 0,15,16
 1927 0 1927 0 1843 0 c 2,17,-1
 1228 0 l 1,18,-1
 1228 1433 l 2,19,20
 1228 1518 1228 1518 1168 1578 c 128,-1,21
 1108 1638 1108 1638 1024 1638 c 0,22,23
 939 1638 939 1638 879 1578 c 128,-1,24
 819 1518 819 1518 819 1433 c 2,25,-1
 819 0 l 1,26,-1
 0 0 l 1,0,-1
EndSplineSet
Validated: 1
EndChar

StartChar: e
Encoding: 101 101 40
Width: 2457
Flags: W
LayerCount: 2
Fore
SplineSet
-204 0 m 1,0,-1
 1228 2867 l 1,1,2
 1228 3036 1228 3036 1108 3156 c 128,-1,3
 988 3276 988 3276 819 3276 c 1,4,-1
 204 2048 l 1,5,-1
 204 4096 l 1,6,-1
 1843 4096 l 2,7,8
 1927 4096 1927 4096 1988 4036 c 0,9,10
 2048 3975 2048 3975 2048 3891 c 2,11,-1
 2048 2048 l 1,12,-1
 1433 2048 l 2,13,14
 1348 2048 1348 2048 1288 1988 c 0,15,16
 1228 1927 1228 1927 1228 1843 c 0,17,18
 1228 1758 1228 1758 1288 1698 c 128,-1,19
 1348 1638 1348 1638 1433 1638 c 2,20,-1
 2048 1638 l 1,21,-1
 2048 0 l 1,22,-1
 -204 0 l 1,0,-1
EndSplineSet
Validated: 1
EndChar

StartChar: f
Encoding: 102 102 41
Width: 2048
Flags: W
LayerCount: 2
Fore
SplineSet
0 0 m 1,0,-1
 0 3890 l 2,1,2
 0 3975 0 3975 59 4035 c 0,3,4
 120 4096 120 4096 204 4096 c 2,5,-1
 1638 4096 l 1,6,-1
 1638 2867 l 1,7,-1
 819 2867 l 2,8,9
 649 2867 649 2867 529 2747 c 128,-1,10
 409 2627 409 2627 409 2457 c 2,11,-1
 409 1228 l 2,12,13
 409 1059 409 1059 529 939 c 128,-1,14
 649 819 649 819 819 819 c 2,15,-1
 1638 819 l 1,16,-1
 1638 0 l 1,17,-1
 0 0 l 1,0,-1
EndSplineSet
Validated: 1
EndChar

StartChar: g
Encoding: 103 103 42
Width: 2867
Flags: W
LayerCount: 2
Fore
SplineSet
0 0 m 1,0,-1
 0 4096 l 1,1,-1
 819 4096 l 1,2,-1
 819 409 l 1,3,-1
 1638 409 l 1,4,-1
 1638 4096 l 1,5,-1
 2252 4096 l 2,6,7
 2337 4096 2337 4096 2397 4036 c 0,8,9
 2457 3975 2457 3975 2457 3891 c 2,10,-1
 2457 409 l 2,11,12
 2457 239 2457 239 2337 120 c 0,13,14
 2217 0 2217 0 2048 0 c 2,15,-1
 0 0 l 1,0,-1
EndSplineSet
Validated: 1
EndChar

StartChar: h
Encoding: 104 104 43
Width: 2867
Flags: W
LayerCount: 2
Fore
SplineSet
0 0 m 1,0,-1
 0 4096 l 1,1,-1
 819 4096 l 1,2,-1
 819 409 l 1,3,-1
 1638 409 l 1,4,-1
 1638 4096 l 1,5,-1
 2252 4096 l 2,6,7
 2337 4096 2337 4096 2397 4036 c 0,8,9
 2457 3975 2457 3975 2457 3891 c 2,10,-1
 2457 409 l 2,11,12
 2457 239 2457 239 2337 120 c 0,13,14
 2217 0 2217 0 2048 0 c 2,15,-1
 0 0 l 1,0,-1
EndSplineSet
Validated: 1
EndChar

StartChar: i
Encoding: 105 105 44
Width: 2048
Flags: W
LayerCount: 2
Fore
SplineSet
0 1228 m 1,0,-1
 0 2048 l 1,1,-1
 1024 2048 l 2,2,3
 1108 2048 1108 2048 1168 2107 c 0,4,5
 1228 2168 1228 2168 1228 2252 c 0,6,7
 1228 2337 1228 2337 1168 2397 c 128,-1,8
 1108 2457 1108 2457 1024 2457 c 2,9,-1
 0 2457 l 1,10,-1
 0 2867 l 1,11,-1
 204 3276 l 1,12,-1
 819 3891 l 1,13,-1
 1228 4096 l 1,14,-1
 1638 4096 l 1,15,-1
 1638 1228 l 1,16,-1
 0 1228 l 1,0,-1
0 0 m 1,17,-1
 0 819 l 1,18,-1
 1638 819 l 1,19,-1
 1638 0 l 1,20,-1
 0 0 l 1,17,-1
EndSplineSet
Validated: 1
EndChar

StartChar: j
Encoding: 106 106 45
Width: 2201
Flags: W
LayerCount: 2
Fore
SplineSet
819 0 m 1,0,-1
 819 1638 l 2,1,2
 819 1807 819 1807 699 1927 c 0,3,4
 579 2048 579 2048 409 2048 c 2,5,-1
 0 2048 l 1,6,-1
 0 3891 l 2,7,8
 0 3975 0 3975 59 4036 c 0,9,10
 120 4096 120 4096 204 4096 c 2,11,-1
 1843 4096 l 1,12,-1
 1843 2048 l 1,13,-1
 1228 3276 l 1,14,15
 1059 3276 1059 3276 939 3156 c 128,-1,16
 819 3036 819 3036 819 2867 c 1,17,-1
 1638 1228 l 1,18,-1
 1638 0 l 1,19,-1
 819 0 l 1,0,-1
EndSplineSet
Validated: 1
EndChar

StartChar: k
Encoding: 107 107 46
Width: 2867
Flags: W
LayerCount: 2
Fore
SplineSet
0 0 m 1,0,-1
 0 4096 l 1,1,-1
 819 4096 l 1,2,-1
 819 409 l 1,3,-1
 1638 409 l 1,4,-1
 1638 4096 l 1,5,-1
 2252 4096 l 2,6,7
 2337 4096 2337 4096 2397 4036 c 0,8,9
 2457 3975 2457 3975 2457 3891 c 2,10,-1
 2457 409 l 2,11,12
 2457 239 2457 239 2337 120 c 0,13,14
 2217 0 2217 0 2048 0 c 2,15,-1
 0 0 l 1,0,-1
EndSplineSet
Validated: 1
EndChar

StartChar: l
Encoding: 108 108 47
Width: 2457
Flags: W
LayerCount: 2
Fore
SplineSet
0 0 m 1,0,-1
 0 3891 l 2,1,2
 0 3975 0 3975 59 4036 c 0,3,4
 120 4096 120 4096 204 4096 c 2,5,-1
 2048 4096 l 1,6,-1
 2048 2457 l 1,7,-1
 1228 3276 l 1,8,9
 1059 3276 1059 3276 939 3156 c 128,-1,10
 819 3036 819 3036 819 2867 c 1,11,-1
 2048 1638 l 1,12,-1
 2048 204 l 2,13,14
 2048 120 2048 120 1988 59 c 0,15,16
 1927 0 1927 0 1843 0 c 2,17,-1
 1228 0 l 1,18,-1
 1228 1433 l 2,19,20
 1228 1518 1228 1518 1168 1578 c 128,-1,21
 1108 1638 1108 1638 1024 1638 c 0,22,23
 939 1638 939 1638 879 1578 c 128,-1,24
 819 1518 819 1518 819 1433 c 2,25,-1
 819 0 l 1,26,-1
 0 0 l 1,0,-1
EndSplineSet
Validated: 1
EndChar

StartChar: m
Encoding: 109 109 48
Width: 2457
Flags: W
LayerCount: 2
Fore
SplineSet
0 0 m 1,0,-1
 0 1228 l 1,1,-1
 1228 2457 l 1,2,-1
 2048 2457 l 1,3,-1
 2048 2048 l 1,4,-1
 819 819 l 1,5,6
 819 649 819 649 939 529 c 128,-1,7
 1059 409 1059 409 1228 409 c 1,8,-1
 2048 1228 l 1,9,-1
 2048 0 l 1,10,-1
 0 0 l 1,0,-1
EndSplineSet
Validated: 1
EndChar

StartChar: n
Encoding: 110 110 49
Width: 2457
Flags: W
LayerCount: 2
Fore
SplineSet
0 0 m 1,0,-1
 0 1228 l 1,1,-1
 1228 2457 l 1,2,-1
 2048 2457 l 1,3,-1
 2048 2048 l 1,4,-1
 819 819 l 1,5,6
 819 649 819 649 939 529 c 128,-1,7
 1059 409 1059 409 1228 409 c 1,8,-1
 2048 1228 l 1,9,-1
 2048 0 l 1,10,-1
 0 0 l 1,0,-1
EndSplineSet
Validated: 1
EndChar

StartChar: o
Encoding: 111 111 50
Width: 2457
Flags: W
LayerCount: 2
Fore
SplineSet
0 0 m 1,0,-1
 0 1228 l 1,1,-1
 1228 2457 l 1,2,-1
 1228 4096 l 1,3,-1
 2048 4096 l 1,4,-1
 2048 2048 l 1,5,-1
 819 819 l 1,6,7
 819 649 819 649 939 529 c 128,-1,8
 1059 409 1059 409 1228 409 c 1,9,-1
 2048 1228 l 1,10,-1
 2048 0 l 1,11,-1
 0 0 l 1,0,-1
EndSplineSet
Validated: 1
EndChar

StartChar: p
Encoding: 112 112 51
Width: 2867
Flags: W
LayerCount: 2
Fore
SplineSet
819 0 m 1,0,-1
 409 204 l 1,1,-1
 204 409 l 1,2,-1
 0 819 l 1,3,-1
 0 4096 l 1,4,-1
 1228 4096 l 1,5,-1
 1228 3276 l 1,6,-1
 1433 3276 l 2,7,8
 1518 3276 1518 3276 1578 3336 c 128,-1,9
 1638 3396 1638 3396 1638 3481 c 2,10,-1
 1638 3686 l 1,11,-1
 2457 3686 l 1,12,-1
 2457 3072 l 2,13,14
 2457 2987 2457 2987 2397 2927 c 128,-1,15
 2337 2867 2337 2867 2252 2867 c 2,16,-1
 1228 2867 l 1,17,-1
 1228 1024 l 2,18,19
 1228 939 1228 939 1288 879 c 128,-1,20
 1348 819 1348 819 1433 819 c 128,-1,21
 1518 819 1518 819 1578 879 c 128,-1,22
 1638 939 1638 939 1638 1024 c 2,23,-1
 1638 2457 l 1,24,-1
 2457 2457 l 1,25,-1
 2457 819 l 1,26,-1
 2252 409 l 1,27,-1
 2048 204 l 1,28,-1
 1638 0 l 1,29,-1
 819 0 l 1,0,-1
EndSplineSet
Validated: 1
EndChar

StartChar: q
Encoding: 113 113 52
Width: 2867
Flags: W
LayerCount: 2
Fore
SplineSet
0 0 m 1,0,-1
 0 4096 l 1,1,-1
 819 4096 l 1,2,-1
 819 409 l 1,3,-1
 1638 409 l 1,4,-1
 1638 4096 l 1,5,-1
 2252 4096 l 2,6,7
 2337 4096 2337 4096 2397 4036 c 0,8,9
 2457 3975 2457 3975 2457 3891 c 2,10,-1
 2457 409 l 2,11,12
 2457 239 2457 239 2337 120 c 0,13,14
 2217 0 2217 0 2048 0 c 2,15,-1
 0 0 l 1,0,-1
EndSplineSet
Validated: 1
EndChar

StartChar: r
Encoding: 114 114 53
Width: 2457
Flags: W
LayerCount: 2
Fore
SplineSet
0 0 m 1,0,-1
 0 3891 l 2,1,2
 0 3975 0 3975 59 4036 c 0,3,4
 120 4096 120 4096 204 4096 c 2,5,-1
 2048 4096 l 1,6,-1
 2048 2457 l 1,7,-1
 1228 3276 l 1,8,9
 1059 3276 1059 3276 939 3156 c 128,-1,10
 819 3036 819 3036 819 2867 c 1,11,-1
 2048 1638 l 1,12,-1
 2048 204 l 2,13,14
 2048 120 2048 120 1988 59 c 0,15,16
 1927 0 1927 0 1843 0 c 2,17,-1
 1228 0 l 1,18,-1
 1228 1433 l 2,19,20
 1228 1518 1228 1518 1168 1578 c 128,-1,21
 1108 1638 1108 1638 1024 1638 c 0,22,23
 939 1638 939 1638 879 1578 c 128,-1,24
 819 1518 819 1518 819 1433 c 2,25,-1
 819 0 l 1,26,-1
 0 0 l 1,0,-1
EndSplineSet
Validated: 1
EndChar

StartChar: s
Encoding: 115 115 54
Width: 2048
Flags: W
LayerCount: 2
Fore
SplineSet
0 0 m 1,0,-1
 0 3890 l 2,1,2
 0 3975 0 3975 59 4035 c 0,3,4
 120 4096 120 4096 204 4096 c 2,5,-1
 1638 4096 l 1,6,-1
 1638 2867 l 1,7,-1
 819 2867 l 2,8,9
 649 2867 649 2867 529 2747 c 128,-1,10
 409 2627 409 2627 409 2457 c 2,11,-1
 409 1228 l 2,12,13
 409 1059 409 1059 529 939 c 128,-1,14
 649 819 649 819 819 819 c 2,15,-1
 1638 819 l 1,16,-1
 1638 0 l 1,17,-1
 0 0 l 1,0,-1
EndSplineSet
Validated: 1
EndChar

StartChar: t
Encoding: 116 116 55
Width: 2457
Flags: W
LayerCount: 2
Fore
SplineSet
0 3686 m 1,0,-1
 0 4096 l 1,1,-1
 2048 4096 l 1,2,-1
 2048 3686 l 1,3,-1
 0 3686 l 1,0,-1
0 0 m 1,4,-1
 0 2457 l 1,5,-1
 1024 2457 l 2,6,7
 1108 2457 1108 2457 1168 2517 c 128,-1,8
 1228 2577 1228 2577 1228 2662 c 128,-1,9
 1228 2747 1228 2747 1168 2807 c 128,-1,10
 1108 2867 1108 2867 1024 2867 c 2,11,-1
 0 2867 l 1,12,-1
 0 3276 l 1,13,-1
 2048 3276 l 1,14,-1
 2048 2252 l 2,15,16
 2048 2168 2048 2168 1988 2107 c 0,17,18
 1927 2048 1927 2048 1843 2048 c 2,19,-1
 1228 2048 l 2,20,21
 1059 2048 1059 2048 939 1927 c 0,22,23
 819 1807 819 1807 819 1638 c 2,24,-1
 819 1228 l 2,25,26
 819 1059 819 1059 939 939 c 128,-1,27
 1059 819 1059 819 1228 819 c 2,28,-1
 1638 819 l 1,29,-1
 2048 1638 l 1,30,-1
 2048 0 l 1,31,-1
 0 0 l 1,4,-1
EndSplineSet
Validated: 1
EndChar

StartChar: u
Encoding: 117 117 56
Width: 2457
Flags: W
LayerCount: 2
Fore
SplineSet
0 3276 m 1,0,-1
 0 3890 l 2,1,2
 0 3975 0 3975 59 4035 c 0,3,4
 120 4096 120 4096 204 4096 c 2,5,-1
 2048 4096 l 1,6,-1
 2048 3276 l 1,7,-1
 0 3276 l 1,0,-1
819 0 m 1,8,-1
 819 1024 l 2,9,10
 819 1108 819 1108 759 1168 c 128,-1,11
 699 1228 699 1228 614 1228 c 2,12,-1
 0 1228 l 1,13,-1
 0 2457 l 1,14,-1
 2048 2457 l 1,15,-1
 2048 1228 l 1,16,-1
 1433 1228 l 2,17,18
 1348 1228 1348 1228 1288 1168 c 128,-1,19
 1228 1108 1228 1108 1228 1024 c 2,20,-1
 1228 0 l 1,21,-1
 819 0 l 1,8,-1
EndSplineSet
Validated: 1
EndChar

StartChar: v
Encoding: 118 118 57
Width: 2457
Flags: W
LayerCount: 2
Fore
SplineSet
819 1638 m 1,0,-1
 0 2457 l 1,1,-1
 0 3686 l 2,2,3
 0 3856 0 3856 120 3975 c 0,4,5
 240 4096 240 4096 409 4096 c 2,6,-1
 1843 4096 l 2,7,8
 1927 4096 1927 4096 1988 4036 c 0,9,10
 2048 3975 2048 3975 2048 3891 c 2,11,-1
 2048 2867 l 1,12,13
 2048 3036 2048 3036 1927 3156 c 0,14,15
 1807 3276 1807 3276 1638 3276 c 2,16,-1
 1228 3276 l 2,17,18
 1059 3276 1059 3276 939 3156 c 128,-1,19
 819 3036 819 3036 819 2867 c 2,20,-1
 819 1638 l 1,0,-1
0 0 m 1,21,-1
 0 1638 l 1,22,-1
 819 819 l 1,23,24
 988 819 988 819 1108 939 c 128,-1,25
 1228 1059 1228 1059 1228 1228 c 2,26,-1
 1228 2457 l 1,27,-1
 2048 1638 l 1,28,-1
 2048 204 l 2,29,30
 2048 120 2048 120 1988 59 c 0,31,32
 1927 0 1927 0 1843 0 c 2,33,-1
 0 0 l 1,21,-1
EndSplineSet
Validated: 1
EndChar

StartChar: w
Encoding: 119 119 58
Width: 2457
Flags: W
LayerCount: 2
Fore
SplineSet
0 3276 m 1,0,-1
 0 3890 l 2,1,2
 0 3975 0 3975 59 4035 c 0,3,4
 120 4096 120 4096 204 4096 c 2,5,-1
 2048 4096 l 1,6,-1
 2048 3276 l 1,7,-1
 0 3276 l 1,0,-1
819 0 m 1,8,-1
 819 1024 l 2,9,10
 819 1108 819 1108 759 1168 c 128,-1,11
 699 1228 699 1228 614 1228 c 2,12,-1
 0 1228 l 1,13,-1
 0 2457 l 1,14,-1
 2048 2457 l 1,15,-1
 2048 1228 l 1,16,-1
 1433 1228 l 2,17,18
 1348 1228 1348 1228 1288 1168 c 128,-1,19
 1228 1108 1228 1108 1228 1024 c 2,20,-1
 1228 0 l 1,21,-1
 819 0 l 1,8,-1
EndSplineSet
Validated: 1
EndChar

StartChar: x
Encoding: 120 120 59
Width: 2457
Flags: W
LayerCount: 2
Fore
SplineSet
0 0 m 1,0,-1
 0 3686 l 2,1,2
 0 3856 0 3856 120 3975 c 0,3,4
 240 4096 240 4096 409 4096 c 2,5,-1
 2048 4096 l 1,6,-1
 2048 2867 l 1,7,8
 2048 3036 2048 3036 1927 3156 c 0,9,10
 1807 3276 1807 3276 1638 3276 c 2,11,-1
 819 3276 l 2,12,13
 649 3276 649 3276 529 3156 c 128,-1,14
 409 3036 409 3036 409 2867 c 2,15,-1
 409 2048 l 2,16,17
 409 1878 409 1878 529 1758 c 128,-1,18
 649 1638 649 1638 819 1638 c 0,19,20
 988 1638 988 1638 1108 1758 c 128,-1,21
 1228 1878 1228 1878 1228 2048 c 1,22,-1
 1228 0 l 1,23,-1
 0 0 l 1,0,-1
EndSplineSet
Validated: 1
EndChar

StartChar: y
Encoding: 121 121 60
Width: 2201
Flags: W
LayerCount: 2
Fore
SplineSet
819 0 m 1,0,-1
 819 1638 l 2,1,2
 819 1807 819 1807 699 1927 c 0,3,4
 579 2048 579 2048 409 2048 c 2,5,-1
 0 2048 l 1,6,-1
 0 3891 l 2,7,8
 0 3975 0 3975 59 4036 c 0,9,10
 120 4096 120 4096 204 4096 c 2,11,-1
 1843 4096 l 1,12,-1
 1843 2048 l 1,13,-1
 1228 3276 l 1,14,15
 1059 3276 1059 3276 939 3156 c 128,-1,16
 819 3036 819 3036 819 2867 c 1,17,-1
 1638 1228 l 1,18,-1
 1638 0 l 1,19,-1
 819 0 l 1,0,-1
EndSplineSet
Validated: 1
EndChar

StartChar: z
Encoding: 122 122 61
Width: 2457
Flags: W
LayerCount: 2
Fore
SplineSet
819 1638 m 1,0,-1
 0 2457 l 1,1,-1
 0 3686 l 2,2,3
 0 3856 0 3856 120 3975 c 0,4,5
 240 4096 240 4096 409 4096 c 2,6,-1
 1843 4096 l 2,7,8
 1927 4096 1927 4096 1988 4036 c 0,9,10
 2048 3975 2048 3975 2048 3891 c 2,11,-1
 2048 2867 l 1,12,13
 2048 3036 2048 3036 1927 3156 c 0,14,15
 1807 3276 1807 3276 1638 3276 c 2,16,-1
 1228 3276 l 2,17,18
 1059 3276 1059 3276 939 3156 c 128,-1,19
 819 3036 819 3036 819 2867 c 2,20,-1
 819 1638 l 1,0,-1
0 0 m 1,21,-1
 0 1638 l 1,22,-1
 819 819 l 1,23,24
 988 819 988 819 1108 939 c 128,-1,25
 1228 1059 1228 1059 1228 1228 c 2,26,-1
 1228 2457 l 1,27,-1
 2048 1638 l 1,28,-1
 2048 204 l 2,29,30
 2048 120 2048 120 1988 59 c 0,31,32
 1927 0 1927 0 1843 0 c 2,33,-1
 0 0 l 1,21,-1
EndSplineSet
Validated: 1
EndChar

StartChar: asciitilde
Encoding: 126 126 62
Width: 819
Flags: W
LayerCount: 2
Fore
SplineSet
204 4096 m 1,0,1
 120 4096 120 4096 59 4155 c 0,2,3
 0 4216 0 4216 0 4300 c 0,4,5
 0 4385 0 4385 59 4445 c 0,6,7
 120 4505 120 4505 204 4505 c 0,8,9
 289 4505 289 4505 349 4445 c 256,10,11
 409 4385 409 4385 409 4300 c 0,12,13
 409 4216 409 4216 349 4155 c 0,14,15
 289 4096 289 4096 204 4096 c 1,16,-1
 204 4096 l 1,0,1
EndSplineSet
Validated: 5
EndChar

StartChar: hyphen
Encoding: 45 45 63
Width: 847
Flags: W
LayerCount: 2
Fore
SplineSet
0 3268 m 1,0,-1
 0 3882 l 2,1,2
 0 3967 0 3967 59 4027 c 0,3,4
 120 4088 120 4088 204 4088 c 2,5,-1
 438 4088 l 1,6,-1
 438 3268 l 1,7,-1
 0 3268 l 1,0,-1
EndSplineSet
Validated: 1
EndChar

StartChar: comma
Encoding: 44 44 65
Width: 847
Flags: W
LayerCount: 2
Fore
SplineSet
0 0 m 1,0,-1
 0 614 l 2,1,2
 0 699 0 699 59 759 c 0,3,4
 120 820 120 820 204 820 c 2,5,-1
 438 820 l 1,6,-1
 438 0 l 1,7,-1
 0 0 l 1,0,-1
EndSplineSet
Validated: 1
EndChar

StartChar: period
Encoding: 46 46 66
Width: 847
Flags: W
LayerCount: 2
Fore
SplineSet
0 0 m 1,0,-1
 0 614 l 2,1,2
 0 699 0 699 59 759 c 0,3,4
 120 820 120 820 204 820 c 2,5,-1
 438 820 l 1,6,-1
 438 0 l 1,7,-1
 0 0 l 1,0,-1
0 1340 m 1,8,-1
 0 1954 l 2,9,10
 0 2039 0 2039 59 2099 c 0,11,12
 120 2160 120 2160 204 2160 c 2,13,-1
 438 2160 l 1,14,-1
 438 1340 l 1,15,-1
 0 1340 l 1,8,-1
EndSplineSet
Validated: 1
EndChar

StartChar: C_H
Encoding: 65540 -1 67
Width: 4914
Flags: W
LayerCount: 2
Fore
SplineSet
2457 0 m 1
 2457 3686 l 2
 2457 3856 2457 3856 2577 3975 c 0
 2697 4096 2697 4096 2866 4096 c 2
 4505 4096 l 1
 4505 2867 l 1
 4505 3036 4505 3036 4384 3156 c 0
 4264 3276 4264 3276 4095 3276 c 2
 3276 3276 l 2
 3106 3276 3106 3276 2986 3156 c 0
 2866 3036 2866 3036 2866 2867 c 2
 2866 2048 l 2
 2866 1878 2866 1878 2986 1758 c 0
 3106 1638 3106 1638 3276 1638 c 0
 3445 1638 3445 1638 3565 1758 c 0
 3685 1878 3685 1878 3685 2048 c 1
 3685 0 l 1
 2457 0 l 1
EndSplineSet
Refer: 29 84 N 1 0 0 1 0 0 2
LCarets2: 1 2267
Ligature2: "'liga' Standard Ligatures in Latin lookup 0-1" C h
Ligature2: "'liga' Standard Ligatures in Latin lookup 0-1" c h
Ligature2: "'liga' Standard Ligatures in Latin lookup 0-1" C H
EndChar
